<svg xmlns="http://www.w3.org/2000/svg" xmlns:xlink="http://www.w3.org/1999/xlink" version="1.1" width="256" height="256" viewBox="0 0 256 256" xml:space="preserve">

<defs>
</defs>
<g style="stroke: none; stroke-width: 0; stroke-dasharray: none; stroke-linecap: butt; stroke-linejoin: miter; stroke-miterlimit: 10; fill: none; fill-rule: nonzero; opacity: 1;" transform="translate(1.4065934065934016 1.4065934065934016) scale(2.81 2.81)" >
	<path d="M 23.277 77.712 c 0.558 0 1.011 -0.452 1.011 -1.011 s -0.453 -1.011 -1.011 -1.011 h -6.216 c -0.558 0 -1.011 0.452 -1.011 1.011 v 12.288 c 0 0.559 0.453 1.011 1.011 1.011 h 6.216 c 0.558 0 1.011 -0.452 1.011 -1.011 s -0.453 -1.011 -1.011 -1.011 h -5.204 v -4.122 h 3.32 c 0.558 0 1.011 -0.452 1.011 -1.011 s -0.453 -1.011 -1.011 -1.011 h -3.32 v -4.121 H 23.277 z" style="stroke: none; stroke-width: 1; stroke-dasharray: none; stroke-linecap: butt; stroke-linejoin: miter; stroke-miterlimit: 10; fill: rgb(255, 255, 255); fill-rule: nonzero; opacity: 1;" transform=" matrix(1 0 0 1 0 0) " stroke-linecap="round" />
	<path d="M 8.515 75.69 h -4.23 c -0.558 0 -1.011 0.452 -1.011 1.011 v 6.143 v 6.144 C 3.274 89.548 3.726 90 4.285 90 s 1.011 -0.452 1.011 -1.011 v -5.133 h 3.219 c 0.738 0 1.338 0.6 1.338 1.338 v 3.795 c 0 0.559 0.453 1.011 1.011 1.011 s 1.011 -0.452 1.011 -1.011 v -3.795 c 0 -0.914 -0.369 -1.743 -0.964 -2.349 c 0.595 -0.607 0.964 -1.435 0.964 -2.349 V 79.05 C 11.876 77.198 10.368 75.69 8.515 75.69 z M 5.296 81.833 v -4.121 h 3.219 c 0.738 0 1.338 0.6 1.338 1.338 v 1.445 c 0 0.738 -0.6 1.338 -1.338 1.338 H 5.296 z" style="stroke: none; stroke-width: 1; stroke-dasharray: none; stroke-linecap: butt; stroke-linejoin: miter; stroke-miterlimit: 10; fill: rgb(255, 255, 255); fill-rule: nonzero; opacity: 1;" transform=" matrix(1 0 0 1 0 0) " stroke-linecap="round" />
	<path d="M 47.687 75.69         h -7.752 c -0.558 0 -1.011 0.452 -1.011 1.011 s 0.453 1.011 1.011 1.011 H 42.8 v 11.277 c 0 0.559 0.453 1.011 1.011 1.011 c 0.558 0 1.011 -0.452 1.011 -1.011 V 77.712 h 2.864 c 0.559 0 1.011 -0.452 1.011 -1.011 S 48.246 75.69 47.687 75.69 z" style="stroke: none; stroke-width: 1; stroke-dasharray: none; stroke-linecap: butt; stroke-linejoin: miter; stroke-miterlimit: 10; fill: rgb(255, 255, 255); fill-rule: nonzero; opacity: 1;" transform=" matrix(1 0 0 1 0 0) " stroke-linecap="round" />
	<path d="M 31.056 77.712 h 1.14 c 0.811 0 1.471 0.617 1.471 1.376 c 0 0.559 0.453 1.011 1.011 1.011 c 0.558 0 1.011 -0.452 1.011 -1.011 c 0 -1.873 -1.567 -3.398 -3.493 -3.398 h -1.14 c -1.999 0 -3.625 1.581 -3.625 3.525 v 1.117 c 0 1.943 1.626 3.525 3.625 3.525 h 1.008 c 0.884 0 1.603 0.674 1.603 1.503 v 1.116 c 0 0.829 -0.719 1.503 -1.603 1.503 h -1.14 c -0.811 0 -1.471 -0.617 -1.471 -1.376 c 0 -0.559 -0.453 -1.011 -1.011 -1.011 s -1.011 0.452 -1.011 1.011 c 0 1.873 1.567 3.398 3.494 3.398 h 1.14 c 1.999 0 3.625 -1.581 3.625 -3.525 v -1.116 c 0 -1.944 -1.626 -3.525 -3.625 -3.525 h -1.008 c -0.884 0 -1.603 -0.674 -1.603 -1.502 v -1.117 C 29.453 78.386 30.172 77.712 31.056 77.712 z" style="stroke: none; stroke-width: 1; stroke-dasharray: none; stroke-linecap: butt; stroke-linejoin: miter; stroke-miterlimit: 10; fill: rgb(255, 255, 255); fill-rule: nonzero; opacity: 1;" transform=" matrix(1 0 0 1 0 0) " stroke-linecap="round" />
	<path d="M 63.83 75.69 h -2.329 c -2.019 0 -3.661 1.642 -3.661 3.661 v 9.638 c 0 0.559 0.452 1.011 1.011 1.011 s 1.011 -0.452 1.011 -1.011 v -5.133 h 5.605 v 5.133 c 0 0.559 0.452 1.011 1.011 1.011 s 1.011 -0.452 1.011 -1.011 V 79.35 C 67.491 77.332 65.849 75.69 63.83 75.69 z M 59.863 81.833 V 79.35 c 0 -0.904 0.735 -1.638 1.638 -1.638 h 2.329 c 0.904 0 1.638 0.735 1.638 1.638 v 2.483 H 59.863 z" style="stroke: none; stroke-width: 1; stroke-dasharray: none; stroke-linecap: butt; stroke-linejoin: miter; stroke-miterlimit: 10; fill: rgb(255, 255, 255); fill-rule: nonzero; opacity: 1;" transform=" matrix(1 0 0 1 0 0) " stroke-linecap="round" />
	<path d="M 85.715 75.69 c -0.559 0 -1.011 0.452 -1.011 1.011 v 12.288 c 0 0.559 0.452 1.011 1.011 1.011 s 1.011 -0.452 1.011 -1.011 V 76.701 C 86.726 76.142 86.274 75.69 85.715 75.69 z" style="stroke: none; stroke-width: 1; stroke-dasharray: none; stroke-linecap: butt; stroke-linejoin: miter; stroke-miterlimit: 10; fill: rgb(255, 255, 255); fill-rule: nonzero; opacity: 1;" transform=" matrix(1 0 0 1 0 0) " stroke-linecap="round" />
	<path d="M 77.482 75.69 h -4.498 c -0.559 0 -1.011 0.452 -1.011 1.011 v 6.892 v 5.396 c 0 0.559 0.452 1.011 1.011 1.011 s 1.011 -0.452 1.011 -1.011 v -4.385 h 3.487 c 1.878 0 3.406 -1.528 3.406 -3.405 v -2.104 C 80.888 77.217 79.36 75.69 77.482 75.69 z M 78.866 81.199 c 0 0.762 -0.62 1.383 -1.384 1.383 h -3.487 v -4.87 h 3.487 c 0.763 0 1.384 0.62 1.384 1.383 V 81.199 z" style="stroke: none; stroke-width: 1; stroke-dasharray: none; stroke-linecap: butt; stroke-linejoin: miter; stroke-miterlimit: 10; fill: rgb(255, 255, 255); fill-rule: nonzero; opacity: 1;" transform=" matrix(1 0 0 1 0 0) " stroke-linecap="round" />
	<path d="M 77.132 37.751 c -2.27 -0.94 -2.446 -3.039 -2.446 -3.659 s 0.177 -2.72 2.444 -3.659 c 1.143 -0.473 2.033 -1.363 2.506 -2.506 c 0.474 -1.143 0.474 -2.402 0 -3.545 l -3.015 -7.28 c -0.473 -1.142 -1.363 -2.033 -2.506 -2.506 c -1.143 -0.473 -2.402 -0.473 -3.545 0 c -2.27 0.941 -3.877 -0.42 -4.315 -0.859 c -0.439 -0.439 -1.799 -2.048 -0.858 -4.316 c 0.474 -1.142 0.474 -2.401 0 -3.544 c -0.474 -1.143 -1.364 -2.033 -2.507 -2.506 l -7.279 -3.015 c -1.144 -0.473 -2.402 -0.473 -3.545 0 c -1.143 0.474 -2.033 1.364 -2.506 2.507 c -0.939 2.268 -3.038 2.444 -3.659 2.444 c -0.621 0 -2.719 -0.177 -3.659 -2.443 c -0.979 -2.358 -3.693 -3.483 -6.05 -2.507 l -7.281 3.016 c -1.142 0.473 -2.032 1.363 -2.505 2.506 C 25.93 7.021 25.93 8.28 26.402 9.422 c 0.94 2.269 -0.419 3.877 -0.858 4.317 c -0.438 0.439 -2.046 1.799 -4.315 0.858 c -2.362 -0.979 -5.073 0.148 -6.051 2.505 l -3.016 7.281 c -0.474 1.143 -0.474 2.402 0 3.544 c 0.474 1.142 1.363 2.033 2.506 2.506 c 2.268 0.939 2.445 3.038 2.444 3.659 c 0 0.62 -0.176 2.719 -2.444 3.659 l -0.002 0.001 c -2.357 0.977 -3.481 3.691 -2.505 6.049 l 3.016 7.281 c 0.979 2.358 3.691 3.48 6.05 2.507 c 2.272 -0.942 3.877 0.419 4.317 0.858 c 0.439 0.439 1.799 2.048 0.859 4.316 c -0.977 2.358 0.147 5.072 2.504 6.05 l 7.283 3.016 c 2.357 0.974 5.071 -0.147 6.05 -2.504 c 0.94 -2.271 3.039 -2.446 3.659 -2.446 s 2.719 0.176 3.659 2.445 c 0.473 1.142 1.363 2.032 2.506 2.505 c 0.571 0.237 1.171 0.355 1.772 0.355 c 0.601 0 1.201 -0.118 1.773 -0.355 l 7.281 -3.016 c 2.36 -0.979 3.484 -3.693 2.506 -6.051 c -0.939 -2.268 0.42 -3.877 0.858 -4.316 c 0.439 -0.439 2.049 -1.797 4.316 -0.859 c 1.144 0.474 2.402 0.473 3.544 0 c 1.142 -0.473 2.033 -1.363 2.506 -2.506 l 3.015 -7.281 C 80.614 41.444 79.49 38.729 77.132 37.751 z M 55.781 46.642 H 36.016 c -4.384 0 -7.937 -3.554 -7.937 -7.937 s 3.554 -7.937 7.937 -7.937 h 1.266 c 0.543 -3.18 2.437 -5.898 5.07 -7.544 c 1.704 -1.065 3.718 -1.68 5.875 -1.68 c 4.625 0 8.589 2.827 10.26 6.848 c 0.415 0.998 0.688 2.07 0.795 3.19 c 2.628 1.294 4.437 3.997 4.437 7.124 C 63.719 43.088 60.165 46.642 55.781 46.642 z" style="stroke: none; stroke-width: 1; stroke-dasharray: none; stroke-linecap: butt; stroke-linejoin: miter; stroke-miterlimit: 10; fill: rgb(255, 255, 255); fill-rule: nonzero; opacity: 1;" transform=" matrix(1 0 0 1 0 0) " stroke-linecap="round" />
</g>
</svg> 